<?xml version="1.0" encoding="UTF-8"?>
<svg xmlns="http://www.w3.org/2000/svg" viewBox="0 0 24 24" fill="currentColor">
  <path d="M16 4c0-1.11.89-2 2-2s2 .89 2 2-.89 2-2 2-2-.89-2-2zM4 18v-4h3v4h2v-4h2l-3-4-3 4h2v4H4zm8.5-5c.83 0 1.5-.67 1.5-1.5S13.33 10 12.5 10s-1.5.67-1.5 1.5.67 1.5 1.5 1.5zm3-2c.83 0 1.5-.67 1.5-1.5S16.33 9 15.5 9s-1.5.67-1.5 1.5.67 1.5 1.5 1.5zm1 2c-.83 0-1.5.67-1.5 1.5s.67 1.5 1.5 1.5 1.5-.67 1.5-1.5-.67-1.5-1.5-1.5zm-2.5 3c-.83 0-1.5.67-1.5 1.5s.67 1.5 1.5 1.5 1.5-.67 1.5-1.5-.67-1.5-1.5-1.5z"/>
</svg>
